/* XPM */
static const char *stop_xpm[]={
"16 16 3 1",
". c None",
"# c #000000",
"a c #585858",
"................",
"................",
"................",
"....########....",
"...#########a...",
"...#########a...",
"...#########a...",
"...#########a...",
"...#########a...",
"...#########a...",
"...#########a...",
"...#########a...",
"....aaaaaaaa....",
"................",
"................",
"................"};
