/* XPM */
static const char * wxlualogo_xpm[] = {
"24 24 172 2",
"  	c None",
". 	c #000080",
"+ 	c #5858AB",
"@ 	c #7777BB",
"# 	c #0F0F87",
"$ 	c #1F1F8F",
"% 	c #FEFEFE",
"& 	c #FFFFFF",
"* 	c #6666B2",
"= 	c #060682",
"- 	c #D5D5EA",
"; 	c #EFEFF7",
"> 	c #333399",
", 	c #040481",
"' 	c #6161B0",
") 	c #0D0D86",
"! 	c #020280",
"~ 	c #0A0A84",
"{ 	c #1E1E8E",
"] 	c #0B0B85",
"^ 	c #6B6BB5",
"/ 	c #6868B3",
"( 	c #131389",
"_ 	c #5454A9",
": 	c #4747A3",
"< 	c #9B9BCD",
"[ 	c #010180",
"} 	c #040482",
"| 	c #7D7DBE",
"1 	c #3E3E9E",
"2 	c #7B7BBD",
"3 	c #9292C8",
"4 	c #8E8ED1",
"5 	c #8A8AD2",
"6 	c #8181D2",
"7 	c #7A7AD2",
"8 	c #7070CF",
"9 	c #40409F",
"0 	c #15158A",
"a 	c #2F2F97",
"b 	c #9898DB",
"c 	c #CACAFE",
"d 	c #BBBBFF",
"e 	c #AFAFFF",
"f 	c #A2A2FF",
"g 	c #9595FE",
"h 	c #6464DB",
"i 	c #ADADED",
"j 	c #C3C3FF",
"k 	c #9696FF",
"l 	c #8A8AFF",
"m 	c #7D7DFF",
"n 	c #6161ED",
"o 	c #9C9CED",
"p 	c #B1B1FF",
"q 	c #8989FF",
"r 	c #6464FF",
"s 	c #5252FF",
"t 	c #4949E6",
"u 	c #8282ED",
"v 	c #9D9DFF",
"w 	c #6F6FFF",
"x 	c #4242FF",
"y 	c #8181CA",
"z 	c #DCDCA9",
"A 	c #E9E9A7",
"B 	c #E9E99D",
"C 	c #E9E992",
"D 	c #E9E989",
"E 	c #D9D96C",
"F 	c #D99A9A",
"G 	c #DF9B9B",
"H 	c #DF9292",
"I 	c #AC72A2",
"J 	c #6969ED",
"K 	c #7B7BFF",
"L 	c #4343FF",
"M 	c #3939FF",
"N 	c #2F2FFF",
"O 	c #BFBFA1",
"P 	c #FFFFD7",
"Q 	c #FFFFB1",
"R 	c #FFFFA5",
"S 	c #FFFF99",
"T 	c #FFFF8C",
"U 	c #FDFD7E",
"V 	c #CECE47",
"W 	c #DB9494",
"X 	c #FFD3D3",
"Y 	c #FFB6B6",
"Z 	c #FFAAAA",
"` 	c #EB95A3",
" .	c #403FDE",
"..	c #5353FF",
"+.	c #2626FF",
"@.	c #1D1DFF",
"#.	c #C5C591",
"$.	c #FFFFCD",
"%.	c #FFFF98",
"&.	c #FEFE7F",
"*.	c #FAFA6C",
"=.	c #FBFB61",
"-.	c #CDCD38",
";.	c #E08C8C",
">.	c #FFCCCC",
",.	c #FF9E9E",
"'.	c #FF9292",
").	c #FF8585",
"!.	c #A4549E",
"~.	c #4D2DBF",
"{.	c #2A19C8",
"].	c #0E0EDA",
"^.	c #0707DA",
"/.	c #C7C776",
"(.	c #FFFFBF",
"_.	c #FFFF80",
":.	c #FDFD70",
"<.	c #F2F252",
"[.	c #EFEF45",
"}.	c #EFEF3B",
"|.	c #C9C921",
"1.	c #E07A7A",
"2.	c #FFBDBD",
"3.	c #FF7878",
"4.	c #FF5B5B",
"5.	c #FF4949",
"6.	c #FB3E3E",
"7.	c #D12525",
"8.	c #D3D349",
"9.	c #F9F9A6",
"0.	c #F7F75B",
"a.	c #F0F047",
"b.	c #EFEF32",
"c.	c #EFEF29",
"d.	c #C9C915",
"e.	c #E05555",
"f.	c #FFA9A9",
"g.	c #FF6666",
"h.	c #FF4D4D",
"i.	c #FF3F3F",
"j.	c #FF3636",
"k.	c #FB2B2B",
"l.	c #D21818",
"m.	c #D0D039",
"n.	c #F5F58F",
"o.	c #EFEF1F",
"p.	c #EDED16",
"q.	c #C8C808",
"r.	c #DF4141",
"s.	c #FF9191",
"t.	c #FF3535",
"u.	c #FF2C2C",
"v.	c #FF2323",
"w.	c #F91919",
"x.	c #D10B0B",
"y.	c #CACA2A",
"z.	c #D6D628",
"A.	c #DCDC22",
"B.	c #DCDC1A",
"C.	c #DCDC12",
"D.	c #DCDC0B",
"E.	c #CCCC02",
"F.	c #D52A2A",
"G.	c #F33F3F",
"H.	c #F92A2A",
"I.	c #F92121",
"J.	c #F81010",
"K.	c #DC0606",
"L.	c #D31212",
"M.	c #D30B0B",
"N.	c #D30606",
"O.	c #D10000",
"                                  . . . .       ",
"                                . . . . + @ #   ",
"                              . . . . $ % & *   ",
"                              . . . . = - ; > . ",
"                            . , ' . ) ! ~ { ] . ",
"                              , ^ . / ( _ : < [ ",
"                              } | $ ^ 1 _ 2 3 # ",
"                4 5 6 7 8     [ 9 1 ( > 0 a >   ",
"              b c d e f g h       . . . . .     ",
"              i j f k l m n                     ",
"              o p q m r s t                     ",
"              u v w s x y z A B C D E           ",
"      F G H I J K L M N O P Q R S T U V         ",
"    W X Y Z `  ...N +.@.#.$.%.T &.*.=.-.        ",
"    ;.>.,.'.).!.~.{.].^./.(._.:.<.[.}.|.        ",
"    1.2.).3.4.5.6.7.    8.9.0.a.}.b.c.d.        ",
"    e.f.g.h.i.j.k.l.    m.n.}.b.c.o.p.q.        ",
"    r.s.i.t.u.v.w.x.    y.z.A.B.C.D.E.          ",
"    F.G.H.I.w.J.K.                              ",
"        L.M.N.O.                                ",
"                                                ",
"                                                ",
"                                                ",
"                                                "};
