/* XPM */
static const char * LUA_xpm[] = {
"16 16 248 2",
"  	c None",
". 	c #FFFFFF",
"+ 	c #FF8F8F",
"@ 	c #FF7F00",
"# 	c #EFEFF7",
"$ 	c #EF8F8F",
"% 	c #DFDFEF",
"& 	c #DF8F8F",
"* 	c #CFCFE7",
"= 	c #CF8F8F",
"- 	c #CF7F00",
"; 	c #BFBFDF",
"> 	c #BF8F8F",
", 	c #BF7F00",
"' 	c #AFAFD7",
") 	c #AF8F8F",
"! 	c #AF7F00",
"~ 	c #9F9FCF",
"{ 	c #9F8F8F",
"] 	c #9F7F00",
"^ 	c #8F8FC7",
"/ 	c #8F8F8F",
"( 	c #8F7F00",
"_ 	c #808F8F",
": 	c #8080BF",
"< 	c #807F00",
"[ 	c #708F8F",
"} 	c #707F00",
"| 	c #7070B7",
"1 	c #608F8F",
"2 	c #607F00",
"3 	c #6060AF",
"4 	c #508F8F",
"5 	c #507F00",
"6 	c #5050A7",
"7 	c #408F8F",
"8 	c #407F00",
"9 	c #40409F",
"0 	c #308F8F",
"a 	c #307F00",
"b 	c #303097",
"c 	c #208F8F",
"d 	c #207F00",
"e 	c #20208F",
"f 	c #108F8F",
"g 	c #107F00",
"h 	c #101087",
"i 	c #00FFFF",
"j 	c #00FFC7",
"k 	c #00FFBF",
"l 	c #00FFAF",
"m 	c #00FFA3",
"n 	c #00FFA0",
"o 	c #00FF9F",
"p 	c #00FF90",
"q 	c #00FF8F",
"r 	c #00FF8C",
"s 	c #00FF80",
"t 	c #00FF7A",
"u 	c #00FF70",
"v 	c #00FF60",
"w 	c #00FF5C",
"x 	c #00FF58",
"y 	c #00FF50",
"z 	c #00FF40",
"A 	c #00FF34",
"B 	c #00FF2C",
"C 	c #00FF24",
"D 	c #00FF20",
"E 	c #00FF19",
"F 	c #00FF18",
"G 	c #00FF14",
"H 	c #00FF10",
"I 	c #00FF00",
"J 	c #00FE10",
"K 	c #00FE00",
"L 	c #00FD20",
"M 	c #00FD00",
"N 	c #00FC8F",
"O 	c #00FC50",
"P 	c #00FC00",
"Q 	c #00FBFF",
"R 	c #00FB9F",
"S 	c #00FB00",
"T 	c #00FA8F",
"U 	c #00FA58",
"V 	c #00FA18",
"W 	c #00FA00",
"X 	c #00F900",
"Y 	c #00F8BF",
"Z 	c #00F890",
"` 	c #00F88F",
" .	c #00F820",
"..	c #00F800",
"+.	c #00F7FF",
"@.	c #00F750",
"#.	c #00F48F",
"$.	c #00F320",
"%.	c #00F310",
"&.	c #00F300",
"*.	c #00F258",
"=.	c #00F100",
"-.	c #00F000",
";.	c #00EF8F",
">.	c #00EF20",
",.	c #00EF00",
"'.	c #00ED80",
").	c #00ED00",
"!.	c #00EBBF",
"~.	c #00EB00",
"{.	c #00EA20",
"].	c #00EA00",
"^.	c #00E800",
"/.	c #00E780",
"(.	c #00E700",
"_.	c #00E6D7",
":.	c #00E600",
"<.	c #00E400",
"[.	c #00E320",
"}.	c #00E300",
"|.	c #00E200",
"1.	c #00E100",
"2.	c #00DFFF",
"3.	c #00DFEF",
"4.	c #00DF00",
"5.	c #00DE00",
"6.	c #00DD90",
"7.	c #00DD8F",
"8.	c #00DD20",
"9.	c #00DD10",
"0.	c #00DAE3",
"a.	c #00DAC0",
"b.	c #00DA8F",
"c.	c #00DA20",
"d.	c #00DA08",
"e.	c #00DA00",
"f.	c #00D820",
"g.	c #00D800",
"h.	c #00D78F",
"i.	c #00D700",
"j.	c #00D511",
"k.	c #00D4FF",
"l.	c #00D4DF",
"m.	c #00D450",
"n.	c #00D43C",
"o.	c #00D400",
"p.	c #00D200",
"q.	c #00D100",
"r.	c #00CF36",
"s.	c #00CF00",
"t.	c #00CE00",
"u.	c #00CD00",
"v.	c #00CA8F",
"w.	c #00CA00",
"x.	c #00C8CF",
"y.	c #00C800",
"z.	c #00C700",
"A.	c #00C29F",
"B.	c #00C200",
"C.	c #00BF8F",
"D.	c #00BF10",
"E.	c #00B900",
"F.	c #00AC00",
"G.	c #00A8DF",
"H.	c #00A818",
"I.	c #00A300",
"J.	c #00A200",
"K.	c #00A0BF",
"L.	c #00A0A0",
"M.	c #009C00",
"N.	c #009A00",
"O.	c #009900",
"P.	c #0098AF",
"Q.	c #009700",
"R.	c #009600",
"S.	c #009500",
"T.	c #009410",
"U.	c #009400",
"V.	c #009300",
"W.	c #009270",
"X.	c #009200",
"Y.	c #00918F",
"Z.	c #009100",
"`.	c #0090FF",
" +	c #009000",
".+	c #008F10",
"++	c #008D8F",
"@+	c #008D34",
"#+	c #008C00",
"$+	c #008BFF",
"%+	c #008500",
"&+	c #008200",
"*+	c #008000",
"=+	c #007F00",
"-+	c #007EBF",
";+	c #007E00",
">+	c #007D00",
",+	c #007B00",
"'+	c #007800",
")+	c #00718F",
"!+	c #006C00",
"~+	c #006B00",
"{+	c #006900",
"]+	c #006800",
"^+	c #006600",
"/+	c #006300",
"(+	c #006200",
"_+	c #006060",
":+	c #005C5C",
"<+	c #005C00",
"[+	c #005620",
"}+	c #005500",
"|+	c #005400",
"1+	c #004C00",
"2+	c #0049C0",
"3+	c #004920",
"4+	c #004830",
"5+	c #004400",
"6+	c #003000",
"7+	c #002F00",
"8+	c #002C40",
"9+	c #002C00",
"0+	c #002B10",
"a+	c #002B00",
"b+	c #002830",
"c+	c #0027FF",
"d+	c #002720",
"e+	c #002440",
"f+	c #001C1C",
"g+	c #001818",
"h+	c #001200",
"i+	c #001030",
"j+	c #001020",
"k+	c #000C00",
"l+	c #000700",
"m+	c #0003FF",
"n+	c #000360",
"o+	c #0000FF",
"p+	c #0000EF",
"q+	c #0000DF",
"r+	c #0000CF",
"s+	c #0000BF",
"t+	c #0000AF",
"u+	c #00009F",
"v+	c #000090",
"w+	c #00008F",
"x+	c #000080",
"y+	c #00007F",
"                '               ",
"                / {     9 y+    ",
"      {   {             y+y+y+  ",
"    { {   h y+y+y+y+'   y+y+y+  ",
"  {     y+y+y+y+y+6 3 y+  3     ",
"      y+y+y+y+y+3 . . ' ^       ",
"'     y+y+y+y+y+^ . . % y+  '   ",
") / 6 y+9 y+y+y+y+% # y+y+      ",
"    b y+. y+y+y+3 y+; y+y+      ",
"    : y+. y+y+y+; y+9 ; y+      ",
"      y+. 9 y+9 . # h ; y+      ",
"      9 y+y+y+y+y+y+y+y+        ",
"        b y+y+y+y+y+y+          ",
"            9 y+y+~             ",
"                                ",
"                                "};
